<?xml version="1.0" standalone="no"?>
<!DOCTYPE svg PUBLIC "-//W3C//DTD SVG 20010904//EN"
 "http://www.w3.org/TR/2001/REC-SVG-20010904/DTD/svg10.dtd">
<svg version="1.0" xmlns="http://www.w3.org/2000/svg"
 width="1123.000000pt" height="98.000000pt" viewBox="0 0 1123.000000 98.000000"
 preserveAspectRatio="xMidYMid meet">

<g transform="translate(0.000000,98.000000) scale(0.100000,-0.100000)"
fill="#0000" stroke="none">
<path d="M0 565 l0 -415 389 0 389 0 26 31 c22 26 26 40 26 95 l0 64 151 0
150 0 -2 -91 -2 -91 -59 -72 c-33 -39 -67 -74 -76 -78 -10 -4 45 -7 121 -7
l137 -1 0 210 0 210 145 0 146 0 -3 -210 -3 -210 265 0 c215 0 261 3 244 13
-12 6 -86 86 -164 177 -79 91 -157 180 -173 198 l-31 32 170 -1 169 0 170
-202 c94 -111 169 -205 167 -209 -1 -5 25 -8 58 -8 l59 0 3 122 3 122 135 102
c74 57 138 103 143 103 4 1 7 -100 7 -224 l0 -225 70 0 70 0 0 75 0 75 471 0
470 0 -21 -28 c-12 -15 -41 -48 -65 -74 l-44 -48 109 0 109 0 -2 75 -2 75 473
0 474 0 -67 -75 -67 -75 286 0 286 0 0 153 1 152 204 152 205 153 295 0 c162
0 295 -3 295 -6 0 -3 -25 -34 -57 -70 l-56 -64 -301 -2 -301 -3 -2 -232 -3
-233 541 0 c444 0 544 2 553 14 6 7 49 41 94 76 l84 62 194 -1 194 -2 0 309 0
310 142 106 142 106 -132 0 -131 0 -99 -75 -99 -75 -172 0 -171 0 0 -247 0
-247 25 -26 25 -26 -106 -78 c-89 -67 -107 -77 -119 -65 -7 8 -36 41 -64 73
l-51 59 0 263 0 262 38 23 c20 13 84 54 142 91 l105 68 -182 0 -181 0 -63 -75
-63 -75 -321 -2 -320 -3 0 -57 -1 -57 -109 -82 c-61 -45 -125 -93 -142 -107
l-33 -24 0 158 1 159 124 80 c69 43 125 80 125 82 0 2 -303 3 -674 3 l-674 0
1 -335 2 -335 -145 0 -145 0 1 243 1 242 121 80 c67 44 129 85 139 92 14 9
-142 12 -704 12 l-723 1 0 -164 0 -164 -142 -106 -143 -107 -3 270 -2 271 -53
0 -52 0 -180 -205 -180 -204 -164 -1 c-154 0 -163 1 -150 17 8 10 61 72 119
138 58 66 132 150 164 188 l58 67 -246 0 -246 0 0 -205 0 -205 -145 0 -145 0
0 123 1 122 124 79 c69 44 125 81 125 83 0 2 -76 3 -169 3 l-169 0 -63 -75
-63 -75 -326 0 -325 0 -27 -34 c-26 -33 -28 -41 -28 -134 l0 -99 392 -2 c215
-1 394 -4 398 -6 3 -2 7 -33 8 -69 l3 -66 -545 0 -546 0 0 205 0 204 66 76 65
75 -85 0 -86 0 0 -415z m3190 70 l0 -325 -145 0 -145 0 0 235 0 235 118 76
c64 42 126 82 137 89 11 8 23 14 28 14 4 1 7 -145 7 -324z"/>
<path d="M7540 490 l0 -490 55 0 55 0 0 404 0 403 130 83 c72 45 130 84 130
86 0 2 -83 4 -185 4 l-185 0 0 -490z"/>
<path d="M8370 905 l-95 -74 -162 0 -163 -1 -2 -415 -3 -415 288 0 288 0 -25
23 c-18 17 -299 335 -403 458 -12 14 -9 19 24 42 21 14 58 40 83 57 41 29 50
31 125 30 44 -1 96 -1 115 -1 l35 1 -2 83 c-1 45 1 87 5 93 4 6 63 52 131 102
l125 92 -135 -1 -134 0 -95 -74z"/>
<path d="M8765 723 l0 -258 -151 -5 -152 -5 197 -227 196 -226 109 -1 c60 -1
106 2 103 5 -4 4 35 38 85 75 l91 69 239 0 238 0 0 193 0 194 23 -3 c12 -1 77
-3 145 -3 l122 -1 0 -265 0 -265 65 0 65 0 0 118 0 117 145 0 145 0 0 -42 0
-43 335 0 335 0 36 -39 c19 -22 48 -56 65 -77 l29 -37 0 492 0 492 -62 -75
-63 -76 -337 0 -338 0 0 -40 0 -40 -145 0 -145 0 0 115 0 115 -42 -1 c-41 0
-46 -4 -107 -75 l-63 -74 -364 0 -364 0 0 -259 0 -259 -142 -106 c-79 -58
-145 -106 -148 -106 -5 0 -4 710 2 714 46 29 236 152 243 158 5 4 -81 8 -190
8 l-200 0 0 -257z m1665 -144 c0 -18 16 -19 365 -19 l365 0 0 -70 0 -70 -365
0 c-318 0 -365 -2 -365 -15 0 -13 -23 -15 -145 -15 l-145 0 0 99 c0 70 4 101
13 105 6 3 72 5 145 4 121 -1 132 -2 132 -19z"/>
<path d="M0 70 l0 -70 66 0 65 0 -62 70 c-35 39 -64 70 -66 70 -2 0 -3 -31 -3
-70z"/>
<path d="M2928 3 c6 -2 18 -2 25 0 6 3 1 5 -13 5 -14 0 -19 -2 -12 -5z"/>
</g>
</svg>
